<?xml version="1.0" encoding="utf-8"?>
<!-- Generator: Adobe Illustrator 22.1.0, SVG Export Plug-In . SVG Version: 6.00 Build 0)  -->
<svg version="1.1" id="Layer_1" xmlns="http://www.w3.org/2000/svg" xmlns:xlink="http://www.w3.org/1999/xlink" x="0px" y="0px"
	 viewBox="0 0 251.8 89.5" enable-background="new 0 0 251.8 89.5" xml:space="preserve">
<g>
	<path fill-rule="evenodd" clip-rule="evenodd" fill="#FFFFFF" d="M47.6,55.1c-1.2,0.8-2.8,1.6-4.2,2.2l13.9,0l0-13.9
		c-0.5,1.2-1.4,3.1-2.2,4.2l-2.8-2.8c-0.9,1.5-2,2.9-3.3,4.2c-1.3,1.3-2.7,2.4-4.2,3.3L47.6,55.1z"/>
	<path fill-rule="evenodd" clip-rule="evenodd" fill="#FFFFFF" d="M47.9,40.3c-0.7,1.6-1.8,3.1-3.1,4.4c-1.3,1.3-2.8,2.4-4.4,3.1
		l3.8,3.8c1.5-0.9,2.9-2,4.3-3.3c1.3-1.3,2.4-2.7,3.3-4.2L47.9,40.3z"/>
	<path fill-rule="evenodd" clip-rule="evenodd" fill="#FFFFFF" d="M56.6,39.2c0.8-3.4,0.8-7.1,0-10.6l-1.9,0c0.9,3.5,0.9,7.2,0,10.6
		L56.6,39.2z"/>
	<path fill-rule="evenodd" clip-rule="evenodd" fill="#FFFFFF" d="M53.7,39.1c0.9-3.2,0.9-7.1,0-10.6l-5.3,0c1.3,3.4,1.3,7.2,0,10.6
		L53.7,39.1z"/>
	<path fill-rule="evenodd" clip-rule="evenodd" fill="#FFFFFF" d="M55.2,20.1c0.7,1.1,1.6,2.8,2.2,4.2l0-13.9l-13.9,0
		c1.4,0.6,2.7,1.3,4.2,2.2l-2.8,2.8c1.5,0.9,2.9,1.9,4.2,3.3c1.4,1.4,2.4,2.7,3.3,4.2L55.2,20.1z"/>
	<path fill-rule="evenodd" clip-rule="evenodd" fill="#FFFFFF" d="M40.4,19.9c1.6,0.7,3.1,1.8,4.4,3.1c1.3,1.3,2.2,2.7,3.1,4.4
		l3.8-3.8c-0.9-1.5-2-3-3.2-4.2c-1.3-1.3-2.7-2.4-4.2-3.3L40.4,19.9z"/>
	<path fill-rule="evenodd" clip-rule="evenodd" fill="#FFFFFF" d="M39.2,11.2c-3.5-0.8-7.1-0.8-10.6,0l0,1.9c3.5-0.9,7.1-0.9,10.6,0
		V11.2z"/>
	<path fill-rule="evenodd" clip-rule="evenodd" fill="#FFFFFF" d="M39.2,14.1c-3.5-0.9-7.1-0.9-10.6,0v5.4c3.4-1.3,7.2-1.3,10.6,0
		L39.2,14.1z"/>
	<path fill-rule="evenodd" clip-rule="evenodd" fill="#FFFFFF" d="M15.5,22.9c0.9-1.5,2-2.9,3.3-4.2c1.3-1.3,2.7-2.4,4.2-3.3
		l-2.8-2.8c1.3-0.9,2.7-1.6,4.2-2.2l-13.9,0l0,13.9c0.6-1.5,1.3-2.9,2.2-4.2L15.5,22.9z"/>
	<path fill-rule="evenodd" clip-rule="evenodd" fill="#FFFFFF" d="M23.8,16.2c-1.5,0.9-3,2-4.3,3.3c-1.3,1.3-2.4,2.7-3.2,4.3
		l3.8,3.8c0.7-1.6,1.8-3.1,3.1-4.4c1.3-1.3,2.8-2.3,4.4-3.1L23.8,16.2z"/>
	<path fill-rule="evenodd" clip-rule="evenodd" fill="#FFFFFF" d="M14.2,28.5c-0.9,3.5-0.9,7.2,0,10.6l5.3,0
		c-1.3-3.4-1.3-7.2,0-10.6L14.2,28.5z"/>
	<path fill-rule="evenodd" clip-rule="evenodd" fill="#FFFFFF" d="M11.3,28.5c-0.8,3.5-0.8,7.1,0,10.6l1.9,0
		c-0.9-3.4-0.9-7.1,0-10.6L11.3,28.5z"/>
	<path fill-rule="evenodd" clip-rule="evenodd" fill="#FFFFFF" d="M12.7,47.6c-0.9-1.4-1.6-2.8-2.2-4.2l0,13.9l13.9,0
		c-1.5-0.6-2.9-1.3-4.2-2.2l2.8-2.8c-1.5-0.9-2.9-2-4.2-3.3c-1.3-1.3-2.4-2.7-3.3-4.2L12.7,47.6z"/>
	<path fill-rule="evenodd" clip-rule="evenodd" fill="#FFFFFF" d="M16.2,44c0.9,1.5,2,3,3.3,4.3c1.3,1.3,2.7,2.4,4.2,3.2l3.8-3.8
		c-1.6-0.7-3.1-1.8-4.4-3.1c-1.3-1.3-2.3-2.8-3.1-4.4L16.2,44z"/>
	<path fill-rule="evenodd" clip-rule="evenodd" fill="#FFFFFF" d="M28.6,48.2c3.4,1.2,7.2,1.2,10.6,0l0,5.3c-3.5,1-7.1,0.9-10.6,0
		V48.2z"/>
	<path fill-rule="evenodd" clip-rule="evenodd" fill="#FFFFFF" d="M28.6,54.6c3.5,0.9,7.1,0.9,10.6,0l0,1.9c-3.5,0.8-7.1,0.8-10.6,0
		L28.6,54.6z"/>
</g>
<path fill="#FFFFFF" d="M68.2,10.3h7.1l23.5,32.6V10.3h7.6v47.1H100L75.8,23.9v33.5h-7.6V10.3z"/>
<path fill="#FFFFFF" d="M128.3,33.6h6.6c5.7,0,9.3-3.1,9.3-7.9v-0.1c0-5-3.5-7.8-9.4-7.8h-11.6v39.6h-8V10.3h20.2
	c5.7,0,10.2,1.7,13.1,4.7c2.4,2.6,3.8,6.1,3.8,10.2v0.1c0,7.7-4.5,12.4-10.8,14.3l12.3,17.8h-9.4L128.3,33.6z"/>
<path fill="#FFFFFF" d="M160.7,10.3h35.9v7.4h-26.9v12.3h22v7.4h-22V50h27.3v7.4h-36.2V10.3z"/>
<path fill="#FFFFFF" d="M206.2,10.3h9v39.6h24.9v7.5h-33.8V10.3z"/>
<g>
	<g>
		<path fill="#8DC63F" d="M205.5,78.3h-1.8V65.7h5.5c1.5,0,2.8,0.5,3.7,1.3c0.7,0.6,1,1.6,1,2.6c0,1.9-1.2,3.3-3.2,3.7l3.8,5.1l0,0
			h-2.2l-4.8-6.4v0h1.6c1.8,0,3-0.9,3-2.3c0-1.4-1.1-2.2-2.9-2.2h-3.6V78.3z"/>
	</g>
	<g>
		<path fill="#8DC63F" d="M175.6,78.3h-9.4V65.7h9.3v1.7h-7.5v3.8h6.3v1.7h-6.3v3.9h7.6V78.3L175.6,78.3z"/>
	</g>
	<g>
		<path fill="#8DC63F" d="M188.8,78.3h-1.4l-7.7-9.7v9.7H178V65.7h1.6l0.1,0.1l7.4,9.4v-9.4h1.8V78.3L188.8,78.3z"/>
	</g>
	<g>
		<path fill="#8DC63F" d="M201.3,78.3h-9.4V65.7h9.3v1.7h-7.5v3.8h6.3v1.7h-6.3v3.9h7.6V78.3L201.3,78.3z"/>
	</g>
	<g>
		<path fill="#8DC63F" d="M222.4,78.5c-3.8,0-6.5-2.7-6.5-6.5c0-3.7,2.8-6.6,6.4-6.6c1.9,0,3.3,0.5,4.7,1.7l0.2,0.1l-1.2,1.4
			l-0.2-0.1c-0.8-0.7-1.8-1.3-3.6-1.3c-2.5,0-4.5,2.1-4.5,4.8c0,3,1.9,4.9,4.7,4.9c1.2,0,2.4-0.4,3.4-1.1V73H222v-1.6h5.5v5.2
			l-0.1,0.1C226.7,77.3,224.9,78.5,222.4,78.5L222.4,78.5z"/>
	</g>
	<g>
		<path fill="#8DC63F" d="M235.4,78.3h-1.8v-5l-5.3-7.7h2.2l4.1,6l4.1-6h2.1l-5.3,7.7V78.3L235.4,78.3z"/>
	</g>
</g>
<g>
	<path fill="#FFFFFF" d="M71.7,67.6h-3.4l0.2-1.3h8.3l-0.2,1.3h-3.5l-2,10.5h-1.4L71.7,67.6z"/>
	<path fill="#FFFFFF" d="M75,78.1l1-5.4c0.2-1.1,0.3-2.2,0.4-3h1.3c-0.1,0.6-0.1,1.2-0.2,1.8h0.1c0.6-1.2,1.4-2,2.6-2
		c0.1,0,0.3,0,0.4,0l-0.3,1.4c-0.1,0-0.2,0-0.4,0c-1.2,0-2.4,1.5-2.7,3.5l-0.7,3.7H75z"/>
	<path fill="#FFFFFF" d="M85.9,78.1c0-0.5,0.1-1.3,0.2-2.2h0c-0.9,1.8-2.1,2.4-3.3,2.4c-1.5,0-2.4-1.2-2.4-2.8c0-2.9,2.2-6,5.8-6
		c0.8,0,1.7,0.1,2.3,0.3l-0.9,4.4c-0.3,1.5-0.4,3-0.3,3.9H85.9z M86.8,70.7c-0.2-0.1-0.5-0.1-1-0.1c-2.2,0-4,2.3-4,4.6
		c0,0.9,0.3,1.9,1.4,1.9c1.2,0,2.6-1.6,3.1-3.8L86.8,70.7z"/>
	<path fill="#FFFFFF" d="M89.4,78.1l1.1-6c0.2-0.9,0.3-1.8,0.4-2.5h1.3L92,71.3h0c0.8-1.2,1.9-1.8,3.1-1.8c1,0,2.1,0.6,2.1,2.3
		c0,0.4-0.1,0.9-0.2,1.4l-0.9,4.9h-1.4l0.9-4.9c0.1-0.3,0.1-0.7,0.1-1.1c0-0.8-0.3-1.5-1.3-1.5c-1,0-2.5,1.2-2.9,3.3l-0.8,4.1H89.4z
		"/>
	<path fill="#FFFFFF" d="M98.8,76.6c0.4,0.2,1.1,0.5,1.8,0.5c1,0,1.6-0.6,1.6-1.4c0-0.7-0.3-1.1-1.2-1.6c-1-0.5-1.5-1.3-1.5-2.1
		c0-1.5,1.3-2.6,3.1-2.6c0.8,0,1.4,0.2,1.7,0.4l-0.4,1.1c-0.3-0.2-0.8-0.4-1.4-0.4c-0.9,0-1.5,0.5-1.5,1.3c0,0.6,0.4,1,1.2,1.4
		c0.9,0.5,1.6,1.3,1.6,2.2c0,1.8-1.4,2.8-3.2,2.8c-0.9,0-1.7-0.3-2.1-0.6L98.8,76.6z"/>
	<path fill="#FFFFFF" d="M105.4,78.1l1.4-7.3h-1.1l0.2-1.1h1.1l0.1-0.5c0.2-1.2,0.6-2.3,1.4-2.9c0.5-0.5,1.3-0.7,2-0.7
		c0.6,0,1,0.1,1.2,0.2l-0.3,1.2c-0.2-0.1-0.5-0.2-0.9-0.2c-1.2,0-1.7,1.1-2,2.5l-0.1,0.4h1.9l-0.2,1.1h-1.9l-1.4,7.3H105.4z"/>
	<path fill="#FFFFFF" d="M113.5,78.2c-2.1,0-3.3-1.6-3.3-3.5c0-2.8,1.9-5.4,4.7-5.4c2.3,0,3.3,1.7,3.3,3.5
		C118.2,75.5,116.4,78.2,113.5,78.2L113.5,78.2z M113.7,77.1c1.7,0,3-2.2,3-4.2c0-1-0.5-2.4-2-2.4c-1.8,0-3,2.2-3,4.2
		C111.7,76.1,112.5,77.1,113.7,77.1L113.7,77.1z"/>
	<path fill="#FFFFFF" d="M119.2,78.1l1-5.4c0.2-1.1,0.3-2.2,0.4-3h1.3c-0.1,0.6-0.1,1.2-0.2,1.8h0.1c0.6-1.2,1.4-2,2.6-2
		c0.1,0,0.3,0,0.4,0l-0.3,1.4c-0.1,0-0.2,0-0.4,0c-1.2,0-2.4,1.5-2.7,3.5l-0.7,3.7H119.2z"/>
	<path fill="#FFFFFF" d="M124.8,78.1l1.1-6c0.2-0.9,0.3-1.8,0.4-2.5h1.3l-0.2,1.6h0.1c0.8-1.2,1.8-1.8,3-1.8c1.3,0,1.9,0.8,2,1.9
		c0.7-1.2,1.8-1.9,3.1-1.9c1,0,2.1,0.6,2.1,2.2c0,0.4-0.1,1-0.1,1.4l-0.9,5H135l0.9-4.9c0.1-0.3,0.1-0.7,0.1-1.1
		c0-0.9-0.3-1.5-1.3-1.5c-1,0-2.3,1.2-2.7,3.1l-0.8,4.3h-1.4l0.9-5c0.1-0.4,0.1-0.7,0.1-1c0-0.7-0.2-1.4-1.3-1.4
		c-1.1,0-2.4,1.4-2.7,3.2l-0.8,4.2H124.8z"/>
	<path fill="#FFFFFF" d="M138.9,78.1l1.6-8.4h1.4l-1.6,8.4H138.9z M141.6,68.2c-0.5,0-0.8-0.4-0.8-0.9c0-0.6,0.4-1,1-1
		c0.5,0,0.9,0.4,0.9,0.9C142.5,67.8,142.1,68.2,141.6,68.2L141.6,68.2z"/>
	<path fill="#FFFFFF" d="M142.9,78.1l1.1-6c0.2-0.9,0.3-1.8,0.4-2.5h1.3l-0.2,1.7h0c0.8-1.2,1.9-1.8,3.1-1.8c1,0,2.1,0.6,2.1,2.3
		c0,0.4-0.1,0.9-0.2,1.4l-0.9,4.9h-1.4l0.9-4.9c0.1-0.3,0.1-0.7,0.1-1.1c0-0.8-0.3-1.5-1.3-1.5c-1,0-2.5,1.2-2.9,3.3l-0.8,4.1H142.9
		z"/>
	<path fill="#FFFFFF" d="M152.3,80c0.5,0.3,1.4,0.6,2.2,0.6c1.4,0,2.5-0.7,3-3l0.3-1.3h0c-0.8,1.2-1.8,1.8-2.9,1.8
		c-1.7,0-2.6-1.4-2.6-2.9c0-2.9,2.1-5.7,5.4-5.7c1,0,2.1,0.3,2.7,0.6l-1.3,7c-0.3,1.8-0.8,3-1.7,3.8c-0.9,0.7-2,0.9-2.9,0.9
		c-1,0-2-0.2-2.5-0.6L152.3,80z M158.8,70.9c-0.3-0.1-0.8-0.3-1.4-0.3c-2.1,0-3.6,2.2-3.6,4.3c0,0.9,0.3,2,1.6,2
		c1.2,0,2.5-1.6,2.8-3.2L158.8,70.9z"/>
</g>
</svg>
