<svg id="Layer_1" xmlns="http://www.w3.org/2000/svg" viewBox="0 0 655 184"><style>.st0{fill:#fff}</style><path class="st0" d="M117.1 129.8c-3.6 2.3-7.4 4.2-11.4 5.8h37.6V98.2c-1.6 4-3.5 7.8-5.9 11.4l-7.5-7.5c-2.4 4.2-5.4 8-8.8 11.4-3.4 3.4-7.3 6.4-11.4 8.9l7.4 7.4zM117.6 89.8c-4.1 8.9-11.3 16.1-20.3 20.3l10.2 10.2c4.2-2.4 8.1-5.4 11.5-8.8 3.4-3.4 6.4-7.3 8.8-11.5l-10.2-10.2zM141.3 86.9c2.1-9.4 2.1-19.2 0-28.6h-5.1c2.4 9.4 2.4 19.2 0 28.6h5.1zM133.3 86.9c2.5-9.4 2.5-19.2 0-28.6h-14.4c3.4 9.2 3.4 19.4 0 28.6h14.4zM137.3 35.5c2.3 3.6 4.3 7.4 5.9 11.3V9.4h-37.6c4 1.6 7.8 3.6 11.4 5.9l-7.5 7.5c8.3 5 15.3 11.9 20.2 20.2l7.6-7.5zM97.4 35c4.4 2.1 8.5 4.9 11.9 8.3 3.4 3.5 6.3 7.5 8.3 11.9L127.8 45c-2.4-4.2-5.3-8.1-8.8-11.5-3.4-3.4-7.3-6.4-11.5-8.8L97.4 35zM94.4 11.4c-9.4-2.1-19.2-2.1-28.6 0v5.1c9.4-2.4 19.2-2.4 28.6 0v-5.1zM94.4 19.3c-9.4-2.5-19.3-2.5-28.6 0v14.5c9.2-3.4 19.4-3.4 28.6 0V19.3zM30.3 43c4.9-8.4 11.9-15.3 20.3-20.3l-7.5-7.5c3.6-2.3 7.4-4.3 11.3-5.9H16.9v37.5c1.6-4 3.6-7.8 5.9-11.4l7.5 7.6zM52.6 24.8c-4.2 2.4-8.1 5.3-11.5 8.8-3.4 3.4-6.4 7.3-8.8 11.5l10.2 10.2c4.1-9 11.3-16.2 20.3-20.3L52.6 24.8zM26.8 58.2c-2.5 9.4-2.5 19.2 0 28.6h14.4c-3.4-9.2-3.4-19.4 0-28.6H26.8zM18.9 58.2c-2.1 9.4-2.1 19.2 0 28.6H24c-2.4-9.4-2.4-19.2 0-28.6h-5.1zM22.8 109.6c-2.3-3.6-4.3-7.4-5.9-11.4v37.5h37.5c-4-1.6-7.8-3.6-11.4-5.9l7.5-7.5c-8.4-4.9-15.3-11.9-20.3-20.2l-7.4 7.5zM32.3 100c4.8 8.4 11.8 15.4 20.2 20.2L62.7 110c-4.4-2-8.5-4.8-11.9-8.2-3.5-3.5-6.3-7.5-8.3-12L32.3 100zM65.8 111.3c9.2 3.4 19.4 3.4 28.6 0v14.4c-9.4 2.6-19.2 2.6-28.6 0v-14.4zM65.8 128.6c9.4 2.4 19.2 2.4 28.6 0v5.1c-9.4 2.1-19.2 2.1-28.6 0v-5.1zM172.7 9H192l63.4 88V9h20.5v127.2h-17.4l-65.3-90.5v90.5h-20.5V9zM334.9 72h17.9c15.4 0 25.2-8.4 25.2-21.3v-.4c0-13.6-9.4-21.1-25.4-21.1h-31.4v106.9h-21.5V9h54.6c15.4 0 27.5 4.7 35.4 12.7 6.8 7.5 10.4 17.3 10.1 27.5v.4c0 20.9-12.1 33.5-29.2 38.5l33.1 48.2h-25.4L334.9 72zM422.3 9h96.9v19.9h-72.7V62h59.2v20h-59.2v34.2h73.6v20h-97.8V9zM545.3 9h24.2v106.9h67.1v20.4h-91.4V9zM32.8 172.5h-2l-11-13.8v13.9h-2.5v-18.1h2.3L30.3 168v-13.5h2.5v18zM54.4 172.5h-2.8l-2.1-4.6h-9.2l-2.1 4.6h-2.7l8.2-18.3H46l8.4 18.3zm-13-7h7.2l-3.6-8-3.6 8zM62.2 172.5h-2.6v-15.7h-5.9v-2.4h14.5v2.4h-6v15.7zM74.1 172.5h-2.6v-18.1H74l.1 18.1zM87.1 172.8c-5 .1-9.2-3.9-9.3-8.9v-.4c-.1-5.1 4-9.3 9.1-9.4h.2c5-.1 9.2 3.9 9.3 8.9v.4c.1 5.1-4 9.3-9.1 9.4h-.2zm0-16.4c-3.8-.1-7.1 2.8-7.2 6.7-.1 3.8 2.8 7.1 6.7 7.2 3.8.1 7.1-2.8 7.2-6.7v-.2c.2-3.6-2.5-6.8-6.1-7h-.6zM115.7 172.5h-2l-11-13.8v13.9h-2.5v-18.1h2.3l10.7 13.5v-13.5h2.5v18zM137.4 172.5h-2.8l-2.1-4.6h-9.3l-2.1 4.6h-2.6l8.3-18.3h2.2l8.4 18.3zm-13.1-7h7.2l-3.6-8-3.6 8zM152.6 172.5H140v-18.1h2.6v15.7h10v2.4zM165.9 172.5h-2.6v-18.1h7.9c1.9-.1 3.8.6 5.2 1.8 1 1 1.5 2.3 1.4 3.7 0 2.7-1.9 5-4.6 5.4l5.5 7.3h-3.2l-6.9-9.2h2.3c2.6 0 4.3-1.3 4.3-3.3 0-2-1.5-3.3-4.2-3.3h-5l-.1 15.7zM396 172.5h-2.6v-18.1h7.9c1.9-.1 3.8.6 5.2 1.8 1 1 1.5 2.3 1.5 3.7 0 2.7-1.9 5-4.6 5.4l5.5 7.3h-3.2l-6.9-9.2h2.3c2.6 0 4.3-1.3 4.3-3.3 0-2-1.5-3.3-4.2-3.3H396v15.7zM534.5 172.5h-2.6v-18.1h7.9c1.9-.1 3.8.6 5.2 1.8 1 1 1.5 2.3 1.4 3.7 0 2.7-1.9 5-4.6 5.4l5.5 7.3h-3.2l-6.9-9.2h2.3c2.6 0 4.3-1.3 4.3-3.3 0-2-1.5-3.3-4.2-3.3h-5.2l.1 15.7zM607.1 172.5h-2.6v-18.1h7.9c1.9-.1 3.8.6 5.2 1.8 1 1 1.5 2.3 1.4 3.7 0 2.7-1.9 5-4.6 5.4l5.5 7.3h-3.2l-6.9-9.2h2.3c2.6 0 4.3-1.3 4.3-3.3 0-2-1.5-3.3-4.2-3.3H607l.1 15.7zM195.1 172.5h-13.5v-18.1H195v2.4h-10.8v5.4h9.7v2.4h-9.7v5.6h10.9v2.3zM214.1 172.5h-2l-11-13.8v13.9h-2.5v-18.1h2.3l10.7 13.5v-13.5h2.5v18zM232 172.5h-13.5v-18.1h13.4v2.4h-10.8v5.4h9.1v2.4h-9.1v5.6H232v2.3zM254 172.6h-2.1l-4.6-13.6-4.7 13.6h-2.1l-6.6-18.3h2.8l4.8 14 4.7-14h2.1l4.7 14 4.8-14h2.7l-6.6 18.3h.1zM278.4 172.5h-2.7l-2.1-4.6h-9.3l-2.1 4.6h-2.7l8.3-18.3h2.2l8.4 18.3zm-13.1-7h7.2l-3.6-8-3.6 8zM289.3 172.5h-8.2v-18.1h7.8c1.8-.1 3.5.5 4.8 1.6.8.8 1.2 1.9 1.2 3 .1 1.7-.8 3.3-2.3 4.1 1.9.5 3.3 2.3 3.3 4.3 0 3.2-2.5 5.1-6.6 5.1zm-5.6-2.4h5.7c2.5 0 4-1.1 4-2.8 0-2.4-2.8-2.8-4.4-2.8h-5.3v5.6zm0-8h4.9c2.4 0 3.8-1.1 3.8-2.8 0-1.8-1.3-2.6-3.6-2.6h-5.1v5.4zM311.9 172.5h-12.6v-18.1h2.7v15.7h9.9v2.4zM328.6 172.5h-13.5v-18.1h13.4v2.4h-10.8v5.4h9v2.4h-9.1v5.6h10.9l.1 2.3zM353.1 172.5h-13.5v-18.1H353v2.4h-10.8v5.4h9.1v2.4h-9.1v5.6h10.9v2.3zM372.1 172.5h-2l-11-13.8v13.9h-2.5v-18.1h2.3l.1.1 10.6 13.4v-13.5h2.5v18zM390 172.5h-13.5v-18.1h13.4v2.4h-10.8v5.4h9.1v2.4h-9.1v5.6H390v2.3zM420.3 172.8c-4.9.2-9.1-3.6-9.3-8.5v-.8c-.1-5.1 3.9-9.3 8.9-9.4h.2c2.5-.1 4.9.8 6.8 2.4l.2.2-1.6 2-.2-.2c-1.4-1.3-3.3-2-5.2-1.9-3.6.1-6.5 3.1-6.4 6.7v.2c-.3 3.6 2.5 6.8 6.1 7h.6c1.7 0 3.4-.6 4.8-1.6V165h-5.4v-2.4h7.9v7.4l-.1.1c-2 1.6-4.6 2.6-7.3 2.7zM439 172.5h-2.6v-7.2l-7.7-10.9h3.1l5.8 8.6 5.9-8.6h3l-7.6 10.9v7.2h.1zM469.1 172.5h-12.6v-18.1h2.6v15.7h10v2.4zM489.4 172.5h-2.8l-2-4.6h-9.3l-2.3 4.6h-2.7l8.3-18.3h2.3l8.5 18.3zm-13-7h7.2l-3.6-8-3.6 8zM500.3 172.5h-8.2v-18.1h7.8c1.8-.1 3.5.5 4.8 1.6.8.8 1.2 1.9 1.2 3 .1 1.7-.9 3.3-2.4 4.1 1.9.5 3.3 2.3 3.3 4.3 0 3.2-2.6 5.1-6.7 5.1h.2zm-5.6-2.4h5.7c2.5 0 4.1-1.1 4.1-2.8 0-2.4-2.8-2.8-4.4-2.8h-5.3l-.1 5.6zm0-8h4.9c2.4 0 3.8-1.1 3.8-2.8 0-1.8-1.4-2.6-3.6-2.6h-5.1v5.4zM518.9 172.8c-5 .1-9.2-3.9-9.3-8.9v-.4c-.1-5.1 4-9.3 9.1-9.4h.2c5-.1 9.2 3.9 9.3 8.9v.4c.1 5.1-4 9.3-9.1 9.4h-.2zm0-16.4c-3.6 0-6.6 2.9-6.6 6.6v.3c.1 3.7 3.2 6.5 6.9 6.4 3.7-.1 6.5-3.2 6.4-6.9-.1-3.6-3.1-6.4-6.7-6.4zM567.4 172.5h-2.8l-2.1-4.6h-9.3l-2.1 4.6h-2.7l8.3-18.3h2.3l8.4 18.3zm-13.1-7h7.2l-3.6-8-3.6 8zM575.2 172.5h-2.6v-15.7h-5.9v-2.4h14.5v2.4h-5.9l-.1 15.7zM591.5 172.8c-5 .1-9.2-3.9-9.3-8.9v-.4c-.1-5.1 4-9.3 9.1-9.4h.2c5-.1 9.2 3.9 9.3 8.9v.4c.1 5.1-4 9.3-9.1 9.4h-.2zm0-16.4c-3.8-.1-7.1 2.8-7.2 6.7-.1 3.8 2.8 7.1 6.7 7.2 3.8.1 7.1-2.8 7.2-6.7v-.2c.2-3.6-2.5-6.8-6.1-7h-.6zM630.3 172.5h-2.6v-7.2l-7.6-11h3.1l5.8 8.6 5.9-8.6h3l-7.6 11v7.2z"/></svg>