<?xml version="1.0" encoding="utf-8"?>
<!-- Generator: Adobe Illustrator 22.0.1, SVG Export Plug-In . SVG Version: 6.00 Build 0)  -->
<svg version="1.1" id="Layer_1" xmlns="http://www.w3.org/2000/svg" xmlns:xlink="http://www.w3.org/1999/xlink" x="0px" y="0px"
	 viewBox="0 0 655 184" style="enable-background:new 0 0 655 184;" xml:space="preserve">
<style type="text/css">
	.st0{fill:#FFFFFF;}
</style>
<path class="st0" d="M117.1,129.8c-3.6,2.3-7.4,4.2-11.4,5.8h37.6V98.2c-1.6,4-3.5,7.8-5.9,11.4l-7.5-7.5c-2.4,4.2-5.4,8-8.8,11.4
	c-3.4,3.4-7.3,6.4-11.4,8.9L117.1,129.8z"/>
<path class="st0" d="M117.6,89.8c-4.1,8.9-11.3,16.1-20.3,20.3l10.2,10.2c4.2-2.4,8.1-5.4,11.5-8.8c3.4-3.4,6.4-7.3,8.8-11.5
	L117.6,89.8z"/>
<path class="st0" d="M141.3,86.9c2.1-9.4,2.1-19.2,0-28.6h-5.1c2.4,9.4,2.4,19.2,0,28.6L141.3,86.9z"/>
<path class="st0" d="M133.3,86.9c2.5-9.4,2.5-19.2,0-28.6h-14.4c3.4,9.2,3.4,19.4,0,28.6H133.3z"/>
<path class="st0" d="M137.3,35.5c2.3,3.6,4.3,7.4,5.9,11.3V9.4h-37.6c4,1.6,7.8,3.6,11.4,5.9l-7.5,7.5c8.3,5,15.3,11.9,20.2,20.2
	L137.3,35.5z"/>
<path class="st0" d="M97.4,35c4.4,2.1,8.5,4.9,11.9,8.3c3.4,3.5,6.3,7.5,8.3,11.9L127.8,45c-2.4-4.2-5.3-8.1-8.8-11.5
	c-3.4-3.4-7.3-6.4-11.5-8.8L97.4,35z"/>
<path class="st0" d="M94.4,11.4c-9.4-2.1-19.2-2.1-28.6,0v5.1c9.4-2.4,19.2-2.4,28.6,0L94.4,11.4z"/>
<path class="st0" d="M94.4,19.3c-9.4-2.5-19.3-2.5-28.6,0v14.5c9.2-3.4,19.4-3.4,28.6,0L94.4,19.3z"/>
<path class="st0" d="M30.3,43c4.9-8.4,11.9-15.3,20.3-20.3l-7.5-7.5c3.6-2.3,7.4-4.3,11.3-5.9H16.9v37.5c1.6-4,3.6-7.8,5.9-11.4
	L30.3,43z"/>
<path class="st0" d="M52.6,24.8c-4.2,2.4-8.1,5.3-11.5,8.8c-3.4,3.4-6.4,7.3-8.8,11.5l10.2,10.2c4.1-9,11.3-16.2,20.3-20.3
	L52.6,24.8z"/>
<path class="st0" d="M26.8,58.2c-2.5,9.4-2.5,19.2,0,28.6h14.4c-3.4-9.2-3.4-19.4,0-28.6L26.8,58.2z"/>
<path class="st0" d="M18.9,58.2c-2.1,9.4-2.1,19.2,0,28.6H24c-2.4-9.4-2.4-19.2,0-28.6H18.9z"/>
<path class="st0" d="M22.8,109.6c-2.3-3.6-4.3-7.4-5.9-11.4v37.5h37.5c-4-1.6-7.8-3.6-11.4-5.9l7.5-7.5
	c-8.4-4.9-15.3-11.9-20.3-20.2L22.8,109.6z"/>
<path class="st0" d="M32.3,100c4.8,8.4,11.8,15.4,20.2,20.2l10.2-10.2c-4.4-2-8.5-4.8-11.9-8.2c-3.5-3.5-6.3-7.5-8.3-12L32.3,100z"
	/>
<path class="st0" d="M65.8,111.3c9.2,3.4,19.4,3.4,28.6,0v14.4c-9.4,2.6-19.2,2.6-28.6,0L65.8,111.3z"/>
<path class="st0" d="M65.8,128.6c9.4,2.4,19.2,2.4,28.6,0v5.1c-9.4,2.1-19.2,2.1-28.6,0L65.8,128.6z"/>
<path class="st0" d="M172.7,9H192l63.4,88V9h20.5v127.2h-17.4l-65.3-90.5v90.5h-20.5V9z"/>
<path class="st0" d="M334.9,72h17.9c15.4,0,25.2-8.4,25.2-21.3v-0.4c0-13.6-9.4-21.1-25.4-21.1h-31.4v106.9h-21.5V9h54.6
	c15.4,0,27.5,4.7,35.4,12.7c6.8,7.5,10.4,17.3,10.1,27.5v0.4c0,20.9-12.1,33.5-29.2,38.5l33.1,48.2h-25.4L334.9,72z"/>
<path class="st0" d="M422.3,9h96.9v19.9h-72.7V62h59.2v20h-59.2v34.2h73.6v20h-97.8V9z"/>
<path class="st0" d="M545.3,9h24.2v106.9h67.1v20.4h-91.4V9z"/>
<path class="st0" d="M32.8,172.5h-2l-11-13.8v13.9h-2.5v-18.1h2.3L30.3,168v-13.5h2.5L32.8,172.5L32.8,172.5z"/>
<path class="st0" d="M54.4,172.5h-2.8l-2.1-4.6h-9.2l-2.1,4.6h-2.7l8.2-18.3H46L54.4,172.5L54.4,172.5z M41.4,165.5h7.2l-3.6-8
	L41.4,165.5L41.4,165.5z"/>
<path class="st0" d="M62.2,172.5h-2.6v-15.7h-5.9v-2.4h14.5v2.4h-6V172.5z"/>
<path class="st0" d="M74.1,172.5h-2.6v-18.1H74L74.1,172.5L74.1,172.5z"/>
<path class="st0" d="M87.1,172.8c-5,0.1-9.2-3.9-9.3-8.9c0-0.1,0-0.3,0-0.4c-0.1-5.1,4-9.3,9.1-9.4c0.1,0,0.2,0,0.2,0
	c5-0.1,9.2,3.9,9.3,8.9c0,0.1,0,0.3,0,0.4c0.1,5.1-4,9.3-9.1,9.4C87.3,172.8,87.2,172.8,87.1,172.8z M87.1,156.4
	c-3.8-0.1-7.1,2.8-7.2,6.7c-0.1,3.8,2.8,7.1,6.7,7.2c3.8,0.1,7.1-2.8,7.2-6.7c0-0.1,0-0.1,0-0.2c0.2-3.6-2.5-6.8-6.1-7
	C87.5,156.4,87.3,156.4,87.1,156.4z"/>
<path class="st0" d="M115.7,172.5h-2l-11-13.8v13.9h-2.5v-18.1h2.3l10.7,13.5v-13.5h2.5L115.7,172.5L115.7,172.5z"/>
<path class="st0" d="M137.4,172.5h-2.8l-2.1-4.6h-9.3l-2.1,4.6h-2.6l8.3-18.3h2.2L137.4,172.5L137.4,172.5z M124.3,165.5h7.2l-3.6-8
	L124.3,165.5L124.3,165.5z"/>
<path class="st0" d="M152.6,172.5h-12.6v-18.1h2.6v15.7h10L152.6,172.5L152.6,172.5z"/>
<path class="st0" d="M165.9,172.5h-2.6v-18.1h7.9c1.9-0.1,3.8,0.6,5.2,1.8c1,1,1.5,2.3,1.4,3.7c0,2.7-1.9,5-4.6,5.4l5.5,7.3h-3.2
	l-6.9-9.2h2.3c2.6,0,4.3-1.3,4.3-3.3c0-2-1.5-3.3-4.2-3.3H166L165.9,172.5z"/>
<path class="st0" d="M396,172.5h-2.6v-18.1h7.9c1.9-0.1,3.8,0.6,5.2,1.8c1,1,1.5,2.3,1.5,3.7c0,2.7-1.9,5-4.6,5.4l5.5,7.3h-3.2
	l-6.9-9.2h2.3c2.6,0,4.3-1.3,4.3-3.3c0-2-1.5-3.3-4.2-3.3h-5.2L396,172.5z"/>
<path class="st0" d="M534.5,172.5h-2.6v-18.1h7.9c1.9-0.1,3.8,0.6,5.2,1.8c1,1,1.5,2.3,1.4,3.7c0,2.7-1.9,5-4.6,5.4l5.5,7.3h-3.2
	l-6.9-9.2h2.3c2.6,0,4.3-1.3,4.3-3.3c0-2-1.5-3.3-4.2-3.3h-5.2L534.5,172.5z"/>
<path class="st0" d="M607.1,172.5h-2.6v-18.1h7.9c1.9-0.1,3.8,0.6,5.2,1.8c1,1,1.5,2.3,1.4,3.7c0,2.7-1.9,5-4.6,5.4l5.5,7.3h-3.2
	l-6.9-9.2h2.3c2.6,0,4.3-1.3,4.3-3.3c0-2-1.5-3.3-4.2-3.3h-5.2L607.1,172.5z"/>
<path class="st0" d="M195.1,172.5h-13.5v-18.1H195v2.4h-10.8v5.4h9.7v2.4h-9.7v5.6h10.9V172.5L195.1,172.5z"/>
<path class="st0" d="M214.1,172.5h-2l-11-13.8v13.9h-2.5v-18.1h2.3l10.7,13.5v-13.5h2.5L214.1,172.5L214.1,172.5z"/>
<path class="st0" d="M232,172.5h-13.5v-18.1h13.4v2.4h-10.8v5.4h9.1v2.4h-9.1v5.6H232L232,172.5L232,172.5z"/>
<path class="st0" d="M254,172.6h-2.1l-4.6-13.6l-4.7,13.6h-2.1l-6.6-18.3h2.8l4.8,14l4.7-14h2.1l4.7,14l4.8-14h2.7l-6.6,18.3H254z"
	/>
<path class="st0" d="M278.4,172.5h-2.7l-2.1-4.6h-9.3l-2.1,4.6h-2.7l8.3-18.3h2.2L278.4,172.5L278.4,172.5z M265.3,165.5h7.2l-3.6-8
	L265.3,165.5z"/>
<path class="st0" d="M289.3,172.5h-8.2v-18.1h7.8c1.8-0.1,3.5,0.5,4.8,1.6c0.8,0.8,1.2,1.9,1.2,3c0.1,1.7-0.8,3.3-2.3,4.1
	c1.9,0.5,3.3,2.3,3.3,4.3C295.9,170.6,293.4,172.5,289.3,172.5L289.3,172.5z M283.7,170.1h5.7c2.5,0,4-1.1,4-2.8
	c0-2.4-2.8-2.8-4.4-2.8h-5.3L283.7,170.1L283.7,170.1z M283.7,162.1h4.9c2.4,0,3.8-1.1,3.8-2.8c0-1.8-1.3-2.6-3.6-2.6h-5.1
	L283.7,162.1L283.7,162.1z"/>
<path class="st0" d="M311.9,172.5h-12.6v-18.1h2.7v15.7h9.9V172.5L311.9,172.5z"/>
<path class="st0" d="M328.6,172.5h-13.5v-18.1h13.4v2.4h-10.8v5.4h9v2.4h-9.1v5.6h10.9L328.6,172.5L328.6,172.5z"/>
<path class="st0" d="M353.1,172.5h-13.5v-18.1H353v2.4h-10.8v5.4h9.1v2.4h-9.1v5.6h10.9L353.1,172.5L353.1,172.5z"/>
<path class="st0" d="M372.1,172.5h-2l-11-13.8v13.9h-2.5v-18.1h2.3l0.1,0.1l10.6,13.4v-13.5h2.5L372.1,172.5L372.1,172.5z"/>
<path class="st0" d="M390,172.5h-13.5v-18.1h13.4v2.4h-10.8v5.4h9.1v2.4h-9.1v5.6H390L390,172.5L390,172.5z"/>
<path class="st0" d="M420.3,172.8c-4.9,0.2-9.1-3.6-9.3-8.5c0-0.3,0-0.6,0-0.8c-0.1-5.1,3.9-9.3,8.9-9.4c0.1,0,0.2,0,0.2,0
	c2.5-0.1,4.9,0.8,6.8,2.4l0.2,0.2l-1.6,2l-0.2-0.2c-1.4-1.3-3.3-2-5.2-1.9c-3.6,0.1-6.5,3.1-6.4,6.7c0,0.1,0,0.1,0,0.2
	c-0.3,3.6,2.5,6.8,6.1,7c0.2,0,0.4,0,0.6,0c1.7,0,3.4-0.6,4.8-1.6v-3.9h-5.4v-2.4h7.9v7.4l-0.1,0.1
	C425.6,171.7,423,172.7,420.3,172.8L420.3,172.8z"/>
<path class="st0" d="M439,172.5h-2.6v-7.2l-7.7-10.9h3.1l5.8,8.6l5.9-8.6h3l-7.6,10.9V172.5L439,172.5z"/>
<path class="st0" d="M469.1,172.5h-12.6v-18.1h2.6v15.7h10V172.5L469.1,172.5z"/>
<path class="st0" d="M489.4,172.5h-2.8l-2-4.6h-9.3l-2.3,4.6h-2.7l8.3-18.3h2.3L489.4,172.5L489.4,172.5z M476.4,165.5h7.2l-3.6-8
	L476.4,165.5z"/>
<path class="st0" d="M500.3,172.5h-8.2v-18.1h7.8c1.8-0.1,3.5,0.5,4.8,1.6c0.8,0.8,1.2,1.9,1.2,3c0.1,1.7-0.9,3.3-2.4,4.1
	c1.9,0.5,3.3,2.3,3.3,4.3c0,3.2-2.6,5.1-6.7,5.1L500.3,172.5z M494.7,170.1h5.7c2.5,0,4.1-1.1,4.1-2.8c0-2.4-2.8-2.8-4.4-2.8h-5.3
	L494.7,170.1L494.7,170.1z M494.7,162.1h4.9c2.4,0,3.8-1.1,3.8-2.8c0-1.8-1.4-2.6-3.6-2.6h-5.1L494.7,162.1L494.7,162.1z"/>
<path class="st0" d="M518.9,172.8c-5,0.1-9.2-3.9-9.3-8.9c0-0.1,0-0.3,0-0.4c-0.1-5.1,4-9.3,9.1-9.4c0.1,0,0.2,0,0.2,0
	c5-0.1,9.2,3.9,9.3,8.9c0,0.1,0,0.3,0,0.4c0.1,5.1-4,9.3-9.1,9.4C519,172.8,519,172.8,518.9,172.8z M518.9,156.4
	c-3.6,0-6.6,2.9-6.6,6.6c0,0.1,0,0.2,0,0.3c0.1,3.7,3.2,6.5,6.9,6.4c3.7-0.1,6.5-3.2,6.4-6.9C525.5,159.2,522.5,156.4,518.9,156.4z"
	/>
<path class="st0" d="M567.4,172.5h-2.8l-2.1-4.6h-9.3l-2.1,4.6h-2.7l8.3-18.3h2.3L567.4,172.5L567.4,172.5z M554.3,165.5h7.2l-3.6-8
	L554.3,165.5L554.3,165.5z"/>
<path class="st0" d="M575.2,172.5h-2.6v-15.7h-5.9v-2.4h14.5v2.4h-5.9L575.2,172.5L575.2,172.5z"/>
<path class="st0" d="M591.5,172.8c-5,0.1-9.2-3.9-9.3-8.9c0-0.1,0-0.3,0-0.4c-0.1-5.1,4-9.3,9.1-9.4c0.1,0,0.2,0,0.2,0
	c5-0.1,9.2,3.9,9.3,8.9c0,0.1,0,0.3,0,0.4c0.1,5.1-4,9.3-9.1,9.4C591.7,172.8,591.6,172.8,591.5,172.8z M591.5,156.4
	c-3.8-0.1-7.1,2.8-7.2,6.7c-0.1,3.8,2.8,7.1,6.7,7.2c3.8,0.1,7.1-2.8,7.2-6.7c0-0.1,0-0.1,0-0.2c0.2-3.6-2.5-6.8-6.1-7
	C591.9,156.4,591.7,156.4,591.5,156.4z"/>
<path class="st0" d="M630.3,172.5h-2.6v-7.2l-7.6-11h3.1l5.8,8.6l5.9-8.6h3l-7.6,11V172.5L630.3,172.5z"/>
</svg>
