<svg xmlns="http://www.w3.org/2000/svg" viewBox="0 0 79.998 21.975"><switch><path fill="#FFF" d="M-.001 6.809v14.935h11.088v-3.465H3.775v-2.611h6.569v-3.465H3.775v-1.928h7.061V6.809H-.001zM20.658 6.809v7.73l-4.501-7.73h-3.453v14.935h3.575v-7.543l4.422 7.543h3.533V6.809h-3.576zM26.4 6.809v14.935h11.088v-3.465h-7.312v-2.611h6.569v-3.465h-6.569v-1.928h7.061V6.809H26.4zM50.324 18.201c-.655-1.114-1.169-1.876-1.569-2.327a5.958 5.958 0 0 0-.55-.536c.71-.262 1.291-.648 1.73-1.161.665-.777 1.002-1.764 1.002-2.933 0-.916-.22-1.746-.652-2.466-.445-.74-1.051-1.265-1.801-1.558-.707-.276-1.773-.411-3.257-.411h-6.131v14.935h3.777V15.98c.683.002.988.075 1.108.12.191.071.384.213.571.423.157.175.516.657 1.336 1.957l2.078 3.265h4.462l-2.104-3.544zm-3.422-6.043a.863.863 0 0 1-.457.36c-.115.041-.556.137-2.182.137h-1.391v-2.38h1.498c1.361 0 1.74.026 1.845.041.278.049.493.162.641.342.151.184.224.435.224.769 0 .302-.06.548-.178.731zM55.998 7.334a6.508 6.508 0 0 0-2.747 2.807c-.611 1.192-.921 2.568-.921 4.088 0 1.399.276 2.715.82 3.909.559 1.228 1.409 2.186 2.525 2.849 1.104.655 2.408.987 3.877.987a9.008 9.008 0 0 0 3.412-.686c1.12-.457 1.995-1.001 2.602-1.618l.161-.164v-6.29h-6.83v3.465h3.033v.884a5.211 5.211 0 0 1-1.088.603c-.488.199-.978.3-1.458.3-.957 0-1.708-.337-2.294-1.029-.601-.711-.906-1.829-.906-3.324 0-1.371.297-2.402.884-3.065.577-.652 1.342-.968 2.34-.968.642 0 1.155.154 1.569.471.414.318.689.744.842 1.304l.138.505 3.702-.735-.115-.556c-.289-1.393-.953-2.503-1.972-3.301-1.013-.793-2.414-1.195-4.164-1.195-1.342.003-2.489.257-3.41.759zM75.62 6.809l-2.704 4.886-2.765-4.886h-4.426l5.238 8.716v6.218h3.776v-6.2l5.259-8.735H75.62z"/><g fill="#FFF"><path d="M-.002-.098h.869v2.187c0 .347.011.572.032.675a.65.65 0 0 0 .266.398c.14.1.332.15.575.15.247 0 .434-.047.559-.142a.548.548 0 0 0 .226-.348c.026-.138.038-.366.038-.686V-.098h.869v2.119c0 .484-.024.827-.07 1.027-.047.2-.134.369-.26.506a1.312 1.312 0 0 1-.507.329c-.212.081-.488.122-.829.122-.411 0-.723-.044-.936-.133a1.336 1.336 0 0 1-.503-.347 1.077 1.077 0 0 1-.244-.447c-.057-.231-.085-.573-.085-1.024V-.098zM4.766 3.93v-.774h.823v.774h-.823zM6.65 2.619l.844-.075c.05.266.153.461.309.586.156.125.366.187.631.187.28 0 .491-.056.633-.166.143-.111.214-.241.214-.389a.358.358 0 0 0-.089-.244c-.06-.067-.164-.125-.312-.175a12.344 12.344 0 0 0-.695-.175c-.465-.108-.792-.241-.979-.398-.264-.221-.396-.492-.396-.81 0-.205.062-.397.186-.575.124-.179.303-.315.536-.408.233-.094.515-.14.845-.14.539 0 .945.111 1.217.334.272.223.416.52.429.891l-.869.03C9.118.886 9.039.737 8.918.646 8.796.555 8.614.51 8.37.51c-.251 0-.447.048-.589.145a.289.289 0 0 0-.137.25c0 .095.043.177.129.244.109.086.375.176.796.269.421.093.733.19.935.29.202.1.36.236.474.41.114.173.171.387.171.641 0 .231-.068.447-.206.649a1.21 1.21 0 0 1-.58.45c-.251.098-.563.147-.937.147-.544 0-.962-.118-1.254-.354-.292-.236-.466-.58-.522-1.032zM11.307 3.93v-.774h.824v.774h-.824zM15.515-.098h1.587c.358 0 .631.026.818.077.252.069.468.193.649.371.18.178.317.395.411.652.094.257.141.575.141.952 0 .331-.044.617-.132.857-.108.293-.261.53-.461.711a1.552 1.552 0 0 1-.61.322 2.778 2.778 0 0 1-.768.086h-1.634V-.098zm.869.683v2.662h.649c.243 0 .419-.013.526-.039a.82.82 0 0 0 .351-.167c.093-.078.169-.208.228-.388.059-.18.088-.425.088-.736s-.029-.549-.088-.715a.91.91 0 0 0-.247-.389.854.854 0 0 0-.403-.189c-.122-.026-.36-.038-.714-.038h-.39zM20.294 3.93V-.097h3.189v.683h-2.32v.889h2.159v.683h-2.159v1.09h2.401v.682h-3.27zM24.735 3.93V-.097h1.393c.528 0 .872.02 1.033.06.246.06.453.192.619.394.166.202.25.463.25.783 0 .247-.048.454-.144.623a1.13 1.13 0 0 1-.365.397c-.148.096-.298.16-.45.191a5.319 5.319 0 0 1-.9.058h-.566V3.93h-.87zm.869-3.345v1.14h.476c.342 0 .571-.021.687-.063a.563.563 0 0 0 .271-.198.51.51 0 0 0 .098-.312.5.5 0 0 0-.138-.362.614.614 0 0 0-.349-.178 4.536 4.536 0 0 0-.625-.027h-.42zM32.607 3.93h-.946l-.374-.914h-1.72l-.357.914h-.922l1.673-4.027h.928l1.718 4.027zm-1.601-1.597L30.415.841l-.582 1.492h1.173zM33.503 3.93V-.097h1.829c.46 0 .794.036 1.003.108a.98.98 0 0 1 .5.386c.125.185.188.396.188.634 0 .302-.094.552-.284.748-.189.197-.472.321-.848.372.187.103.342.215.464.338.122.123.286.341.493.654l.526.786h-1.04l-.624-.878c-.224-.313-.377-.509-.46-.591a.673.673 0 0 0-.262-.167 1.54 1.54 0 0 0-.439-.046h-.177V3.93h-.869zm.869-2.325h.644c.417 0 .678-.017.782-.049a.465.465 0 0 0 .244-.17.495.495 0 0 0 .088-.301.466.466 0 0 0-.116-.328.547.547 0 0 0-.328-.158 7.864 7.864 0 0 0-.635-.014h-.679v1.02zM39.246 3.93V.585H37.97v-.683h3.415v.683h-1.271V3.93h-.868zM42.37 3.93V-.097h1.3l.776 2.747.771-2.747h1.301V3.93h-.803L45.712.76l-.851 3.17h-.84L43.176.76l-.002 3.17h-.804zM47.82 3.93V-.097h3.189v.683h-2.32v.889h2.159v.683h-2.159v1.09h2.4v.682H47.82zM52.262 3.93V-.097h.842l1.775 2.703V-.097h.803V3.93h-.869l-1.748-2.644V3.93h-.803zM58.004 3.93V.585h-1.275v-.683h3.415v.683h-1.271V3.93h-.869zM63.057 1.946c0-.41.066-.755.197-1.034.098-.205.231-.389.401-.552.169-.163.355-.284.557-.363.268-.106.578-.16.929-.16.635 0 1.142.184 1.523.552.381.369.571.881.571 1.537 0 .651-.189 1.16-.567 1.527-.378.368-.884.551-1.516.551-.641 0-1.15-.183-1.528-.548-.378-.365-.567-.869-.567-1.51zm.894-.028c0 .457.113.804.339 1.04.226.236.513.354.861.354s.633-.117.856-.352c.223-.234.335-.585.335-1.053 0-.463-.109-.808-.326-1.036-.217-.227-.506-.341-.865-.341-.36 0-.65.115-.87.346-.22.23-.33.578-.33 1.042zM68.346 3.93V-.097h2.953v.683h-2.084v.949h1.798v.683h-1.798V3.93h-.869z"/></g></switch></svg>